# xmcd
#
# Track frame offsets:
#	150
#	23775
#	35234
#	51812
#	64214
#	79086
#	93123
#	107247
#
# Disc length: 1609 seconds
#
# Revision: 0
# Processed by: cddbd v1.5.2PL0 Copyright (c) Steve Scherf et al.
# Submitted via: audiograbber 1.83.01
#
DISCID=64064708
DTITLE=The Prairie Oysters - Self Titled
DYEAR=1900
DGENRE=Country Rock
TTITLE0=When The Dust Settles
TTITLE1=One Woman Man
TTITLE2=Hot Rod Heart
TTITLE3=Wait A Minute
TTITLE4=Rag Top
TTITLE5=Dixie Fried
TTITLE6=Heart Break Train
TTITLE7=Singin The Blues (Live)
EXTD=
EXTT0=
EXTT1=
EXTT2=
EXTT3=
EXTT4=
EXTT5=
EXTT6=
EXTT7=
PLAYORDER=
